solid OpenSCAD_Model
  facet normal 0.999507 0.0314065 0
    outer loop
      vertex 1 0 0.5
      vertex 0.998027 0.0627905 -0.5
      vertex 0.998027 0.0627905 0.5
    endloop
  endfacet
  facet normal 0.999507 0.0314065 0
    outer loop
      vertex 0.998027 0.0627905 -0.5
      vertex 1 0 0.5
      vertex 1 0 -0.5
    endloop
  endfacet
  facet normal 0.995562 0.0941082 0
    outer loop
      vertex 0.998027 0.0627905 0.5
      vertex 0.992115 0.125333 -0.5
      vertex 0.992115 0.125333 0.5
    endloop
  endfacet
  facet normal 0.995562 0.0941082 0
    outer loop
      vertex 0.992115 0.125333 -0.5
      vertex 0.998027 0.0627905 0.5
      vertex 0.998027 0.0627905 -0.5
    endloop
  endfacet
  facet normal 0.987687 0.156443 0
    outer loop
      vertex 0.992115 0.125333 0.5
      vertex 0.982287 0.187381 -0.5
      vertex 0.982287 0.187381 0.5
    endloop
  endfacet
  facet normal 0.987687 0.156443 0
    outer loop
      vertex 0.982287 0.187381 -0.5
      vertex 0.992115 0.125333 0.5
      vertex 0.992115 0.125333 -0.5
    endloop
  endfacet
  facet normal 0.975917 0.21814 0
    outer loop
      vertex 0.982287 0.187381 0.5
      vertex 0.968583 0.24869 -0.5
      vertex 0.968583 0.24869 0.5
    endloop
  endfacet
  facet normal 0.975917 0.21814 0
    outer loop
      vertex 0.968583 0.24869 -0.5
      vertex 0.982287 0.187381 0.5
      vertex 0.982287 0.187381 -0.5
    endloop
  endfacet
  facet normal 0.960296 0.278982 0
    outer loop
      vertex 0.968583 0.24869 0.5
      vertex 0.951057 0.309017 -0.5
      vertex 0.951057 0.309017 0.5
    endloop
  endfacet
  facet normal 0.960296 0.278982 0
    outer loop
      vertex 0.951057 0.309017 -0.5
      vertex 0.968583 0.24869 0.5
      vertex 0.968583 0.24869 -0.5
    endloop
  endfacet
  facet normal 0.940877 0.338749 0
    outer loop
      vertex 0.951057 0.309017 0.5
      vertex 0.929776 0.368125 -0.5
      vertex 0.929776 0.368125 0.5
    endloop
  endfacet
  facet normal 0.940877 0.338749 0
    outer loop
      vertex 0.929776 0.368125 -0.5
      vertex 0.951057 0.309017 0.5
      vertex 0.951057 0.309017 -0.5
    endloop
  endfacet
  facet normal 0.917755 0.397146 0
    outer loop
      vertex 0.929776 0.368125 0.5
      vertex 0.904827 0.425779 -0.5
      vertex 0.904827 0.425779 0.5
    endloop
  endfacet
  facet normal 0.917755 0.397146 0
    outer loop
      vertex 0.904827 0.425779 -0.5
      vertex 0.929776 0.368125 0.5
      vertex 0.929776 0.368125 -0.5
    endloop
  endfacet
  facet normal 0.891011 0.453982 0
    outer loop
      vertex 0.904827 0.425779 0.5
      vertex 0.876307 0.481754 -0.5
      vertex 0.876307 0.481754 0.5
    endloop
  endfacet
  facet normal 0.891011 0.453982 0
    outer loop
      vertex 0.876307 0.481754 -0.5
      vertex 0.904827 0.425779 0.5
      vertex 0.904827 0.425779 -0.5
    endloop
  endfacet
  facet normal 0.86074 0.509045 0
    outer loop
      vertex 0.876307 0.481754 0.5
      vertex 0.844328 0.535827 -0.5
      vertex 0.844328 0.535827 0.5
    endloop
  endfacet
  facet normal 0.86074 0.509045 0
    outer loop
      vertex 0.844328 0.535827 -0.5
      vertex 0.876307 0.481754 0.5
      vertex 0.876307 0.481754 -0.5
    endloop
  endfacet
  facet normal 0.827078 0.562088 0
    outer loop
      vertex 0.844328 0.535827 0.5
      vertex 0.809017 0.587785 -0.5
      vertex 0.809017 0.587785 0.5
    endloop
  endfacet
  facet normal 0.827078 0.562088 0
    outer loop
      vertex 0.809017 0.587785 -0.5
      vertex 0.844328 0.535827 0.5
      vertex 0.844328 0.535827 -0.5
    endloop
  endfacet
  facet normal 0.790155 0.612907 0
    outer loop
      vertex 0.809017 0.587785 0.5
      vertex 0.770513 0.637424 -0.5
      vertex 0.770513 0.637424 0.5
    endloop
  endfacet
  facet normal 0.790155 0.612907 0
    outer loop
      vertex 0.770513 0.637424 -0.5
      vertex 0.809017 0.587785 0.5
      vertex 0.809017 0.587785 -0.5
    endloop
  endfacet
  facet normal 0.750115 0.661307 0
    outer loop
      vertex 0.770513 0.637424 0.5
      vertex 0.728969 0.684547 -0.5
      vertex 0.728969 0.684547 0.5
    endloop
  endfacet
  facet normal 0.750115 0.661307 0
    outer loop
      vertex 0.728969 0.684547 -0.5
      vertex 0.770513 0.637424 0.5
      vertex 0.770513 0.637424 -0.5
    endloop
  endfacet
  facet normal 0.707107 0.707107 0
    outer loop
      vertex 0.728969 0.684547 0.5
      vertex 0.684547 0.728969 -0.5
      vertex 0.684547 0.728969 0.5
    endloop
  endfacet
  facet normal 0.707107 0.707107 0
    outer loop
      vertex 0.684547 0.728969 -0.5
      vertex 0.728969 0.684547 0.5
      vertex 0.728969 0.684547 -0.5
    endloop
  endfacet
  facet normal 0.661307 0.750115 -0
    outer loop
      vertex 0.684547 0.728969 -0.5
      vertex 0.637424 0.770513 0.5
      vertex 0.684547 0.728969 0.5
    endloop
  endfacet
  facet normal 0.661307 0.750115 0
    outer loop
      vertex 0.637424 0.770513 0.5
      vertex 0.684547 0.728969 -0.5
      vertex 0.637424 0.770513 -0.5
    endloop
  endfacet
  facet normal 0.612907 0.790155 -0
    outer loop
      vertex 0.637424 0.770513 -0.5
      vertex 0.587785 0.809017 0.5
      vertex 0.637424 0.770513 0.5
    endloop
  endfacet
  facet normal 0.612907 0.790155 0
    outer loop
      vertex 0.587785 0.809017 0.5
      vertex 0.637424 0.770513 -0.5
      vertex 0.587785 0.809017 -0.5
    endloop
  endfacet
  facet normal 0.562088 0.827078 -0
    outer loop
      vertex 0.587785 0.809017 -0.5
      vertex 0.535827 0.844328 0.5
      vertex 0.587785 0.809017 0.5
    endloop
  endfacet
  facet normal 0.562088 0.827078 0
    outer loop
      vertex 0.535827 0.844328 0.5
      vertex 0.587785 0.809017 -0.5
      vertex 0.535827 0.844328 -0.5
    endloop
  endfacet
  facet normal 0.509045 0.86074 -0
    outer loop
      vertex 0.535827 0.844328 -0.5
      vertex 0.481754 0.876307 0.5
      vertex 0.535827 0.844328 0.5
    endloop
  endfacet
  facet normal 0.509045 0.86074 0
    outer loop
      vertex 0.481754 0.876307 0.5
      vertex 0.535827 0.844328 -0.5
      vertex 0.481754 0.876307 -0.5
    endloop
  endfacet
  facet normal 0.453982 0.891011 -0
    outer loop
      vertex 0.481754 0.876307 -0.5
      vertex 0.425779 0.904827 0.5
      vertex 0.481754 0.876307 0.5
    endloop
  endfacet
  facet normal 0.453982 0.891011 0
    outer loop
      vertex 0.425779 0.904827 0.5
      vertex 0.481754 0.876307 -0.5
      vertex 0.425779 0.904827 -0.5
    endloop
  endfacet
  facet normal 0.397146 0.917755 -0
    outer loop
      vertex 0.425779 0.904827 -0.5
      vertex 0.368125 0.929776 0.5
      vertex 0.425779 0.904827 0.5
    endloop
  endfacet
  facet normal 0.397146 0.917755 0
    outer loop
      vertex 0.368125 0.929776 0.5
      vertex 0.425779 0.904827 -0.5
      vertex 0.368125 0.929776 -0.5
    endloop
  endfacet
  facet normal 0.338749 0.940877 -0
    outer loop
      vertex 0.368125 0.929776 -0.5
      vertex 0.309017 0.951057 0.5
      vertex 0.368125 0.929776 0.5
    endloop
  endfacet
  facet normal 0.338749 0.940877 0
    outer loop
      vertex 0.309017 0.951057 0.5
      vertex 0.368125 0.929776 -0.5
      vertex 0.309017 0.951057 -0.5
    endloop
  endfacet
  facet normal 0.278982 0.960296 -0
    outer loop
      vertex 0.309017 0.951057 -0.5
      vertex 0.24869 0.968583 0.5
      vertex 0.309017 0.951057 0.5
    endloop
  endfacet
  facet normal 0.278982 0.960296 0
    outer loop
      vertex 0.24869 0.968583 0.5
      vertex 0.309017 0.951057 -0.5
      vertex 0.24869 0.968583 -0.5
    endloop
  endfacet
  facet normal 0.21814 0.975917 -0
    outer loop
      vertex 0.24869 0.968583 -0.5
      vertex 0.187381 0.982287 0.5
      vertex 0.24869 0.968583 0.5
    endloop
  endfacet
  facet normal 0.21814 0.975917 0
    outer loop
      vertex 0.187381 0.982287 0.5
      vertex 0.24869 0.968583 -0.5
      vertex 0.187381 0.982287 -0.5
    endloop
  endfacet
  facet normal 0.156443 0.987687 -0
    outer loop
      vertex 0.187381 0.982287 -0.5
      vertex 0.125333 0.992115 0.5
      vertex 0.187381 0.982287 0.5
    endloop
  endfacet
  facet normal 0.156443 0.987687 0
    outer loop
      vertex 0.125333 0.992115 0.5
      vertex 0.187381 0.982287 -0.5
      vertex 0.125333 0.992115 -0.5
    endloop
  endfacet
  facet normal 0.0941082 0.995562 -0
    outer loop
      vertex 0.125333 0.992115 -0.5
      vertex 0.0627905 0.998027 0.5
      vertex 0.125333 0.992115 0.5
    endloop
  endfacet
  facet normal 0.0941082 0.995562 0
    outer loop
      vertex 0.0627905 0.998027 0.5
      vertex 0.125333 0.992115 -0.5
      vertex 0.0627905 0.998027 -0.5
    endloop
  endfacet
  facet normal 0.0314065 0.999507 -0
    outer loop
      vertex 0.0627905 0.998027 -0.5
      vertex 0 1 0.5
      vertex 0.0627905 0.998027 0.5
    endloop
  endfacet
  facet normal 0.0314065 0.999507 0
    outer loop
      vertex 0 1 0.5
      vertex 0.0627905 0.998027 -0.5
      vertex 0 1 -0.5
    endloop
  endfacet
  facet normal -0.0314065 0.999507 0
    outer loop
      vertex 0 1 -0.5
      vertex -0.0627905 0.998027 0.5
      vertex 0 1 0.5
    endloop
  endfacet
  facet normal -0.0314065 0.999507 0
    outer loop
      vertex -0.0627905 0.998027 0.5
      vertex 0 1 -0.5
      vertex -0.0627905 0.998027 -0.5
    endloop
  endfacet
  facet normal -0.0941082 0.995562 0
    outer loop
      vertex -0.0627905 0.998027 -0.5
      vertex -0.125333 0.992115 0.5
      vertex -0.0627905 0.998027 0.5
    endloop
  endfacet
  facet normal -0.0941082 0.995562 0
    outer loop
      vertex -0.125333 0.992115 0.5
      vertex -0.0627905 0.998027 -0.5
      vertex -0.125333 0.992115 -0.5
    endloop
  endfacet
  facet normal -0.156443 0.987687 0
    outer loop
      vertex -0.125333 0.992115 -0.5
      vertex -0.187381 0.982287 0.5
      vertex -0.125333 0.992115 0.5
    endloop
  endfacet
  facet normal -0.156443 0.987687 0
    outer loop
      vertex -0.187381 0.982287 0.5
      vertex -0.125333 0.992115 -0.5
      vertex -0.187381 0.982287 -0.5
    endloop
  endfacet
  facet normal -0.21814 0.975917 0
    outer loop
      vertex -0.187381 0.982287 -0.5
      vertex -0.24869 0.968583 0.5
      vertex -0.187381 0.982287 0.5
    endloop
  endfacet
  facet normal -0.21814 0.975917 0
    outer loop
      vertex -0.24869 0.968583 0.5
      vertex -0.187381 0.982287 -0.5
      vertex -0.24869 0.968583 -0.5
    endloop
  endfacet
  facet normal -0.278982 0.960296 0
    outer loop
      vertex -0.24869 0.968583 -0.5
      vertex -0.309017 0.951057 0.5
      vertex -0.24869 0.968583 0.5
    endloop
  endfacet
  facet normal -0.278982 0.960296 0
    outer loop
      vertex -0.309017 0.951057 0.5
      vertex -0.24869 0.968583 -0.5
      vertex -0.309017 0.951057 -0.5
    endloop
  endfacet
  facet normal -0.338749 0.940877 0
    outer loop
      vertex -0.309017 0.951057 -0.5
      vertex -0.368125 0.929776 0.5
      vertex -0.309017 0.951057 0.5
    endloop
  endfacet
  facet normal -0.338749 0.940877 0
    outer loop
      vertex -0.368125 0.929776 0.5
      vertex -0.309017 0.951057 -0.5
      vertex -0.368125 0.929776 -0.5
    endloop
  endfacet
  facet normal -0.397146 0.917755 0
    outer loop
      vertex -0.368125 0.929776 -0.5
      vertex -0.425779 0.904827 0.5
      vertex -0.368125 0.929776 0.5
    endloop
  endfacet
  facet normal -0.397146 0.917755 0
    outer loop
      vertex -0.425779 0.904827 0.5
      vertex -0.368125 0.929776 -0.5
      vertex -0.425779 0.904827 -0.5
    endloop
  endfacet
  facet normal -0.453982 0.891011 0
    outer loop
      vertex -0.425779 0.904827 -0.5
      vertex -0.481754 0.876307 0.5
      vertex -0.425779 0.904827 0.5
    endloop
  endfacet
  facet normal -0.453982 0.891011 0
    outer loop
      vertex -0.481754 0.876307 0.5
      vertex -0.425779 0.904827 -0.5
      vertex -0.481754 0.876307 -0.5
    endloop
  endfacet
  facet normal -0.509045 0.86074 0
    outer loop
      vertex -0.481754 0.876307 -0.5
      vertex -0.535827 0.844328 0.5
      vertex -0.481754 0.876307 0.5
    endloop
  endfacet
  facet normal -0.509045 0.86074 0
    outer loop
      vertex -0.535827 0.844328 0.5
      vertex -0.481754 0.876307 -0.5
      vertex -0.535827 0.844328 -0.5
    endloop
  endfacet
  facet normal -0.562088 0.827078 0
    outer loop
      vertex -0.535827 0.844328 -0.5
      vertex -0.587785 0.809017 0.5
      vertex -0.535827 0.844328 0.5
    endloop
  endfacet
  facet normal -0.562088 0.827078 0
    outer loop
      vertex -0.587785 0.809017 0.5
      vertex -0.535827 0.844328 -0.5
      vertex -0.587785 0.809017 -0.5
    endloop
  endfacet
  facet normal -0.612907 0.790155 0
    outer loop
      vertex -0.587785 0.809017 -0.5
      vertex -0.637424 0.770513 0.5
      vertex -0.587785 0.809017 0.5
    endloop
  endfacet
  facet normal -0.612907 0.790155 0
    outer loop
      vertex -0.637424 0.770513 0.5
      vertex -0.587785 0.809017 -0.5
      vertex -0.637424 0.770513 -0.5
    endloop
  endfacet
  facet normal -0.661307 0.750115 0
    outer loop
      vertex -0.637424 0.770513 -0.5
      vertex -0.684547 0.728969 0.5
      vertex -0.637424 0.770513 0.5
    endloop
  endfacet
  facet normal -0.661307 0.750115 0
    outer loop
      vertex -0.684547 0.728969 0.5
      vertex -0.637424 0.770513 -0.5
      vertex -0.684547 0.728969 -0.5
    endloop
  endfacet
  facet normal -0.707107 0.707107 0
    outer loop
      vertex -0.728969 0.684547 -0.5
      vertex -0.684547 0.728969 0.5
      vertex -0.684547 0.728969 -0.5
    endloop
  endfacet
  facet normal -0.707107 0.707107 0
    outer loop
      vertex -0.684547 0.728969 0.5
      vertex -0.728969 0.684547 -0.5
      vertex -0.728969 0.684547 0.5
    endloop
  endfacet
  facet normal -0.750115 0.661307 0
    outer loop
      vertex -0.770513 0.637424 -0.5
      vertex -0.728969 0.684547 0.5
      vertex -0.728969 0.684547 -0.5
    endloop
  endfacet
  facet normal -0.750115 0.661307 0
    outer loop
      vertex -0.728969 0.684547 0.5
      vertex -0.770513 0.637424 -0.5
      vertex -0.770513 0.637424 0.5
    endloop
  endfacet
  facet normal -0.790155 0.612907 0
    outer loop
      vertex -0.809017 0.587785 -0.5
      vertex -0.770513 0.637424 0.5
      vertex -0.770513 0.637424 -0.5
    endloop
  endfacet
  facet normal -0.790155 0.612907 0
    outer loop
      vertex -0.770513 0.637424 0.5
      vertex -0.809017 0.587785 -0.5
      vertex -0.809017 0.587785 0.5
    endloop
  endfacet
  facet normal -0.827078 0.562088 0
    outer loop
      vertex -0.844328 0.535827 -0.5
      vertex -0.809017 0.587785 0.5
      vertex -0.809017 0.587785 -0.5
    endloop
  endfacet
  facet normal -0.827078 0.562088 0
    outer loop
      vertex -0.809017 0.587785 0.5
      vertex -0.844328 0.535827 -0.5
      vertex -0.844328 0.535827 0.5
    endloop
  endfacet
  facet normal -0.86074 0.509045 0
    outer loop
      vertex -0.876307 0.481754 -0.5
      vertex -0.844328 0.535827 0.5
      vertex -0.844328 0.535827 -0.5
    endloop
  endfacet
  facet normal -0.86074 0.509045 0
    outer loop
      vertex -0.844328 0.535827 0.5
      vertex -0.876307 0.481754 -0.5
      vertex -0.876307 0.481754 0.5
    endloop
  endfacet
  facet normal -0.891011 0.453982 0
    outer loop
      vertex -0.904827 0.425779 -0.5
      vertex -0.876307 0.481754 0.5
      vertex -0.876307 0.481754 -0.5
    endloop
  endfacet
  facet normal -0.891011 0.453982 0
    outer loop
      vertex -0.876307 0.481754 0.5
      vertex -0.904827 0.425779 -0.5
      vertex -0.904827 0.425779 0.5
    endloop
  endfacet
  facet normal -0.917755 0.397146 0
    outer loop
      vertex -0.929776 0.368125 -0.5
      vertex -0.904827 0.425779 0.5
      vertex -0.904827 0.425779 -0.5
    endloop
  endfacet
  facet normal -0.917755 0.397146 0
    outer loop
      vertex -0.904827 0.425779 0.5
      vertex -0.929776 0.368125 -0.5
      vertex -0.929776 0.368125 0.5
    endloop
  endfacet
  facet normal -0.940877 0.338749 0
    outer loop
      vertex -0.951057 0.309017 -0.5
      vertex -0.929776 0.368125 0.5
      vertex -0.929776 0.368125 -0.5
    endloop
  endfacet
  facet normal -0.940877 0.338749 0
    outer loop
      vertex -0.929776 0.368125 0.5
      vertex -0.951057 0.309017 -0.5
      vertex -0.951057 0.309017 0.5
    endloop
  endfacet
  facet normal -0.960296 0.278982 0
    outer loop
      vertex -0.968583 0.24869 -0.5
      vertex -0.951057 0.309017 0.5
      vertex -0.951057 0.309017 -0.5
    endloop
  endfacet
  facet normal -0.960296 0.278982 0
    outer loop
      vertex -0.951057 0.309017 0.5
      vertex -0.968583 0.24869 -0.5
      vertex -0.968583 0.24869 0.5
    endloop
  endfacet
  facet normal -0.975917 0.21814 0
    outer loop
      vertex -0.982287 0.187381 -0.5
      vertex -0.968583 0.24869 0.5
      vertex -0.968583 0.24869 -0.5
    endloop
  endfacet
  facet normal -0.975917 0.21814 0
    outer loop
      vertex -0.968583 0.24869 0.5
      vertex -0.982287 0.187381 -0.5
      vertex -0.982287 0.187381 0.5
    endloop
  endfacet
  facet normal -0.987687 0.156443 0
    outer loop
      vertex -0.992115 0.125333 -0.5
      vertex -0.982287 0.187381 0.5
      vertex -0.982287 0.187381 -0.5
    endloop
  endfacet
  facet normal -0.987687 0.156443 0
    outer loop
      vertex -0.982287 0.187381 0.5
      vertex -0.992115 0.125333 -0.5
      vertex -0.992115 0.125333 0.5
    endloop
  endfacet
  facet normal -0.995562 0.0941082 0
    outer loop
      vertex -0.998027 0.0627905 -0.5
      vertex -0.992115 0.125333 0.5
      vertex -0.992115 0.125333 -0.5
    endloop
  endfacet
  facet normal -0.995562 0.0941082 0
    outer loop
      vertex -0.992115 0.125333 0.5
      vertex -0.998027 0.0627905 -0.5
      vertex -0.998027 0.0627905 0.5
    endloop
  endfacet
  facet normal -0.999507 0.0314065 0
    outer loop
      vertex -1 -0 -0.5
      vertex -0.998027 0.0627905 0.5
      vertex -0.998027 0.0627905 -0.5
    endloop
  endfacet
  facet normal -0.999507 0.0314065 0
    outer loop
      vertex -0.998027 0.0627905 0.5
      vertex -1 -0 -0.5
      vertex -1 -0 0.5
    endloop
  endfacet
  facet normal -0.999507 -0.0314065 0
    outer loop
      vertex -0.998027 -0.0627905 -0.5
      vertex -1 -0 0.5
      vertex -1 -0 -0.5
    endloop
  endfacet
  facet normal -0.999507 -0.0314065 0
    outer loop
      vertex -1 -0 0.5
      vertex -0.998027 -0.0627905 -0.5
      vertex -0.998027 -0.0627905 0.5
    endloop
  endfacet
  facet normal -0.995562 -0.0941082 0
    outer loop
      vertex -0.992115 -0.125333 -0.5
      vertex -0.998027 -0.0627905 0.5
      vertex -0.998027 -0.0627905 -0.5
    endloop
  endfacet
  facet normal -0.995562 -0.0941082 0
    outer loop
      vertex -0.998027 -0.0627905 0.5
      vertex -0.992115 -0.125333 -0.5
      vertex -0.992115 -0.125333 0.5
    endloop
  endfacet
  facet normal -0.987687 -0.156443 0
    outer loop
      vertex -0.982287 -0.187381 -0.5
      vertex -0.992115 -0.125333 0.5
      vertex -0.992115 -0.125333 -0.5
    endloop
  endfacet
  facet normal -0.987687 -0.156443 0
    outer loop
      vertex -0.992115 -0.125333 0.5
      vertex -0.982287 -0.187381 -0.5
      vertex -0.982287 -0.187381 0.5
    endloop
  endfacet
  facet normal -0.975917 -0.21814 0
    outer loop
      vertex -0.968583 -0.24869 -0.5
      vertex -0.982287 -0.187381 0.5
      vertex -0.982287 -0.187381 -0.5
    endloop
  endfacet
  facet normal -0.975917 -0.21814 0
    outer loop
      vertex -0.982287 -0.187381 0.5
      vertex -0.968583 -0.24869 -0.5
      vertex -0.968583 -0.24869 0.5
    endloop
  endfacet
  facet normal -0.960296 -0.278982 0
    outer loop
      vertex -0.951057 -0.309017 -0.5
      vertex -0.968583 -0.24869 0.5
      vertex -0.968583 -0.24869 -0.5
    endloop
  endfacet
  facet normal -0.960296 -0.278982 0
    outer loop
      vertex -0.968583 -0.24869 0.5
      vertex -0.951057 -0.309017 -0.5
      vertex -0.951057 -0.309017 0.5
    endloop
  endfacet
  facet normal -0.940877 -0.338749 0
    outer loop
      vertex -0.929776 -0.368125 -0.5
      vertex -0.951057 -0.309017 0.5
      vertex -0.951057 -0.309017 -0.5
    endloop
  endfacet
  facet normal -0.940877 -0.338749 0
    outer loop
      vertex -0.951057 -0.309017 0.5
      vertex -0.929776 -0.368125 -0.5
      vertex -0.929776 -0.368125 0.5
    endloop
  endfacet
  facet normal -0.917755 -0.397146 0
    outer loop
      vertex -0.904827 -0.425779 -0.5
      vertex -0.929776 -0.368125 0.5
      vertex -0.929776 -0.368125 -0.5
    endloop
  endfacet
  facet normal -0.917755 -0.397146 0
    outer loop
      vertex -0.929776 -0.368125 0.5
      vertex -0.904827 -0.425779 -0.5
      vertex -0.904827 -0.425779 0.5
    endloop
  endfacet
  facet normal -0.891011 -0.453982 0
    outer loop
      vertex -0.876307 -0.481754 -0.5
      vertex -0.904827 -0.425779 0.5
      vertex -0.904827 -0.425779 -0.5
    endloop
  endfacet
  facet normal -0.891011 -0.453982 0
    outer loop
      vertex -0.904827 -0.425779 0.5
      vertex -0.876307 -0.481754 -0.5
      vertex -0.876307 -0.481754 0.5
    endloop
  endfacet
  facet normal -0.86074 -0.509045 0
    outer loop
      vertex -0.844328 -0.535827 -0.5
      vertex -0.876307 -0.481754 0.5
      vertex -0.876307 -0.481754 -0.5
    endloop
  endfacet
  facet normal -0.86074 -0.509045 0
    outer loop
      vertex -0.876307 -0.481754 0.5
      vertex -0.844328 -0.535827 -0.5
      vertex -0.844328 -0.535827 0.5
    endloop
  endfacet
  facet normal -0.827078 -0.562088 0
    outer loop
      vertex -0.809017 -0.587785 -0.5
      vertex -0.844328 -0.535827 0.5
      vertex -0.844328 -0.535827 -0.5
    endloop
  endfacet
  facet normal -0.827078 -0.562088 0
    outer loop
      vertex -0.844328 -0.535827 0.5
      vertex -0.809017 -0.587785 -0.5
      vertex -0.809017 -0.587785 0.5
    endloop
  endfacet
  facet normal -0.790155 -0.612907 0
    outer loop
      vertex -0.770513 -0.637424 -0.5
      vertex -0.809017 -0.587785 0.5
      vertex -0.809017 -0.587785 -0.5
    endloop
  endfacet
  facet normal -0.790155 -0.612907 0
    outer loop
      vertex -0.809017 -0.587785 0.5
      vertex -0.770513 -0.637424 -0.5
      vertex -0.770513 -0.637424 0.5
    endloop
  endfacet
  facet normal -0.750115 -0.661307 0
    outer loop
      vertex -0.728969 -0.684547 -0.5
      vertex -0.770513 -0.637424 0.5
      vertex -0.770513 -0.637424 -0.5
    endloop
  endfacet
  facet normal -0.750115 -0.661307 0
    outer loop
      vertex -0.770513 -0.637424 0.5
      vertex -0.728969 -0.684547 -0.5
      vertex -0.728969 -0.684547 0.5
    endloop
  endfacet
  facet normal -0.707107 -0.707107 0
    outer loop
      vertex -0.684547 -0.728969 -0.5
      vertex -0.728969 -0.684547 0.5
      vertex -0.728969 -0.684547 -0.5
    endloop
  endfacet
  facet normal -0.707107 -0.707107 0
    outer loop
      vertex -0.728969 -0.684547 0.5
      vertex -0.684547 -0.728969 -0.5
      vertex -0.684547 -0.728969 0.5
    endloop
  endfacet
  facet normal -0.661307 -0.750115 0
    outer loop
      vertex -0.684547 -0.728969 -0.5
      vertex -0.637424 -0.770513 0.5
      vertex -0.684547 -0.728969 0.5
    endloop
  endfacet
  facet normal -0.661307 -0.750115 -0
    outer loop
      vertex -0.637424 -0.770513 0.5
      vertex -0.684547 -0.728969 -0.5
      vertex -0.637424 -0.770513 -0.5
    endloop
  endfacet
  facet normal -0.612907 -0.790155 0
    outer loop
      vertex -0.637424 -0.770513 -0.5
      vertex -0.587785 -0.809017 0.5
      vertex -0.637424 -0.770513 0.5
    endloop
  endfacet
  facet normal -0.612907 -0.790155 -0
    outer loop
      vertex -0.587785 -0.809017 0.5
      vertex -0.637424 -0.770513 -0.5
      vertex -0.587785 -0.809017 -0.5
    endloop
  endfacet
  facet normal -0.562088 -0.827078 0
    outer loop
      vertex -0.587785 -0.809017 -0.5
      vertex -0.535827 -0.844328 0.5
      vertex -0.587785 -0.809017 0.5
    endloop
  endfacet
  facet normal -0.562088 -0.827078 -0
    outer loop
      vertex -0.535827 -0.844328 0.5
      vertex -0.587785 -0.809017 -0.5
      vertex -0.535827 -0.844328 -0.5
    endloop
  endfacet
  facet normal -0.509045 -0.86074 0
    outer loop
      vertex -0.535827 -0.844328 -0.5
      vertex -0.481754 -0.876307 0.5
      vertex -0.535827 -0.844328 0.5
    endloop
  endfacet
  facet normal -0.509045 -0.86074 -0
    outer loop
      vertex -0.481754 -0.876307 0.5
      vertex -0.535827 -0.844328 -0.5
      vertex -0.481754 -0.876307 -0.5
    endloop
  endfacet
  facet normal -0.453982 -0.891011 0
    outer loop
      vertex -0.481754 -0.876307 -0.5
      vertex -0.425779 -0.904827 0.5
      vertex -0.481754 -0.876307 0.5
    endloop
  endfacet
  facet normal -0.453982 -0.891011 -0
    outer loop
      vertex -0.425779 -0.904827 0.5
      vertex -0.481754 -0.876307 -0.5
      vertex -0.425779 -0.904827 -0.5
    endloop
  endfacet
  facet normal -0.397146 -0.917755 0
    outer loop
      vertex -0.425779 -0.904827 -0.5
      vertex -0.368125 -0.929776 0.5
      vertex -0.425779 -0.904827 0.5
    endloop
  endfacet
  facet normal -0.397146 -0.917755 -0
    outer loop
      vertex -0.368125 -0.929776 0.5
      vertex -0.425779 -0.904827 -0.5
      vertex -0.368125 -0.929776 -0.5
    endloop
  endfacet
  facet normal -0.338749 -0.940877 0
    outer loop
      vertex -0.368125 -0.929776 -0.5
      vertex -0.309017 -0.951057 0.5
      vertex -0.368125 -0.929776 0.5
    endloop
  endfacet
  facet normal -0.338749 -0.940877 -0
    outer loop
      vertex -0.309017 -0.951057 0.5
      vertex -0.368125 -0.929776 -0.5
      vertex -0.309017 -0.951057 -0.5
    endloop
  endfacet
  facet normal -0.278982 -0.960296 0
    outer loop
      vertex -0.309017 -0.951057 -0.5
      vertex -0.24869 -0.968583 0.5
      vertex -0.309017 -0.951057 0.5
    endloop
  endfacet
  facet normal -0.278982 -0.960296 -0
    outer loop
      vertex -0.24869 -0.968583 0.5
      vertex -0.309017 -0.951057 -0.5
      vertex -0.24869 -0.968583 -0.5
    endloop
  endfacet
  facet normal -0.21814 -0.975917 0
    outer loop
      vertex -0.24869 -0.968583 -0.5
      vertex -0.187381 -0.982287 0.5
      vertex -0.24869 -0.968583 0.5
    endloop
  endfacet
  facet normal -0.21814 -0.975917 -0
    outer loop
      vertex -0.187381 -0.982287 0.5
      vertex -0.24869 -0.968583 -0.5
      vertex -0.187381 -0.982287 -0.5
    endloop
  endfacet
  facet normal -0.156443 -0.987687 0
    outer loop
      vertex -0.187381 -0.982287 -0.5
      vertex -0.125333 -0.992115 0.5
      vertex -0.187381 -0.982287 0.5
    endloop
  endfacet
  facet normal -0.156443 -0.987687 -0
    outer loop
      vertex -0.125333 -0.992115 0.5
      vertex -0.187381 -0.982287 -0.5
      vertex -0.125333 -0.992115 -0.5
    endloop
  endfacet
  facet normal -0.0941082 -0.995562 0
    outer loop
      vertex -0.125333 -0.992115 -0.5
      vertex -0.0627905 -0.998027 0.5
      vertex -0.125333 -0.992115 0.5
    endloop
  endfacet
  facet normal -0.0941082 -0.995562 -0
    outer loop
      vertex -0.0627905 -0.998027 0.5
      vertex -0.125333 -0.992115 -0.5
      vertex -0.0627905 -0.998027 -0.5
    endloop
  endfacet
  facet normal -0.0314065 -0.999507 0
    outer loop
      vertex -0.0627905 -0.998027 -0.5
      vertex -0 -1 0.5
      vertex -0.0627905 -0.998027 0.5
    endloop
  endfacet
  facet normal -0.0314065 -0.999507 -0
    outer loop
      vertex -0 -1 0.5
      vertex -0.0627905 -0.998027 -0.5
      vertex -0 -1 -0.5
    endloop
  endfacet
  facet normal 0.0314065 -0.999507 0
    outer loop
      vertex -0 -1 -0.5
      vertex 0.0627905 -0.998027 0.5
      vertex -0 -1 0.5
    endloop
  endfacet
  facet normal 0.0314065 -0.999507 0
    outer loop
      vertex 0.0627905 -0.998027 0.5
      vertex -0 -1 -0.5
      vertex 0.0627905 -0.998027 -0.5
    endloop
  endfacet
  facet normal 0.0941082 -0.995562 0
    outer loop
      vertex 0.0627905 -0.998027 -0.5
      vertex 0.125333 -0.992115 0.5
      vertex 0.0627905 -0.998027 0.5
    endloop
  endfacet
  facet normal 0.0941082 -0.995562 0
    outer loop
      vertex 0.125333 -0.992115 0.5
      vertex 0.0627905 -0.998027 -0.5
      vertex 0.125333 -0.992115 -0.5
    endloop
  endfacet
  facet normal 0.156443 -0.987687 0
    outer loop
      vertex 0.125333 -0.992115 -0.5
      vertex 0.187381 -0.982287 0.5
      vertex 0.125333 -0.992115 0.5
    endloop
  endfacet
  facet normal 0.156443 -0.987687 0
    outer loop
      vertex 0.187381 -0.982287 0.5
      vertex 0.125333 -0.992115 -0.5
      vertex 0.187381 -0.982287 -0.5
    endloop
  endfacet
  facet normal 0.21814 -0.975917 0
    outer loop
      vertex 0.187381 -0.982287 -0.5
      vertex 0.24869 -0.968583 0.5
      vertex 0.187381 -0.982287 0.5
    endloop
  endfacet
  facet normal 0.21814 -0.975917 0
    outer loop
      vertex 0.24869 -0.968583 0.5
      vertex 0.187381 -0.982287 -0.5
      vertex 0.24869 -0.968583 -0.5
    endloop
  endfacet
  facet normal 0.278982 -0.960296 0
    outer loop
      vertex 0.24869 -0.968583 -0.5
      vertex 0.309017 -0.951057 0.5
      vertex 0.24869 -0.968583 0.5
    endloop
  endfacet
  facet normal 0.278982 -0.960296 0
    outer loop
      vertex 0.309017 -0.951057 0.5
      vertex 0.24869 -0.968583 -0.5
      vertex 0.309017 -0.951057 -0.5
    endloop
  endfacet
  facet normal 0.338749 -0.940877 0
    outer loop
      vertex 0.309017 -0.951057 -0.5
      vertex 0.368125 -0.929776 0.5
      vertex 0.309017 -0.951057 0.5
    endloop
  endfacet
  facet normal 0.338749 -0.940877 0
    outer loop
      vertex 0.368125 -0.929776 0.5
      vertex 0.309017 -0.951057 -0.5
      vertex 0.368125 -0.929776 -0.5
    endloop
  endfacet
  facet normal 0.397146 -0.917755 0
    outer loop
      vertex 0.368125 -0.929776 -0.5
      vertex 0.425779 -0.904827 0.5
      vertex 0.368125 -0.929776 0.5
    endloop
  endfacet
  facet normal 0.397146 -0.917755 0
    outer loop
      vertex 0.425779 -0.904827 0.5
      vertex 0.368125 -0.929776 -0.5
      vertex 0.425779 -0.904827 -0.5
    endloop
  endfacet
  facet normal 0.453982 -0.891011 0
    outer loop
      vertex 0.425779 -0.904827 -0.5
      vertex 0.481754 -0.876307 0.5
      vertex 0.425779 -0.904827 0.5
    endloop
  endfacet
  facet normal 0.453982 -0.891011 0
    outer loop
      vertex 0.481754 -0.876307 0.5
      vertex 0.425779 -0.904827 -0.5
      vertex 0.481754 -0.876307 -0.5
    endloop
  endfacet
  facet normal 0.509045 -0.86074 0
    outer loop
      vertex 0.481754 -0.876307 -0.5
      vertex 0.535827 -0.844328 0.5
      vertex 0.481754 -0.876307 0.5
    endloop
  endfacet
  facet normal 0.509045 -0.86074 0
    outer loop
      vertex 0.535827 -0.844328 0.5
      vertex 0.481754 -0.876307 -0.5
      vertex 0.535827 -0.844328 -0.5
    endloop
  endfacet
  facet normal 0.562088 -0.827078 0
    outer loop
      vertex 0.535827 -0.844328 -0.5
      vertex 0.587785 -0.809017 0.5
      vertex 0.535827 -0.844328 0.5
    endloop
  endfacet
  facet normal 0.562088 -0.827078 0
    outer loop
      vertex 0.587785 -0.809017 0.5
      vertex 0.535827 -0.844328 -0.5
      vertex 0.587785 -0.809017 -0.5
    endloop
  endfacet
  facet normal 0.612907 -0.790155 0
    outer loop
      vertex 0.587785 -0.809017 -0.5
      vertex 0.637424 -0.770513 0.5
      vertex 0.587785 -0.809017 0.5
    endloop
  endfacet
  facet normal 0.612907 -0.790155 0
    outer loop
      vertex 0.637424 -0.770513 0.5
      vertex 0.587785 -0.809017 -0.5
      vertex 0.637424 -0.770513 -0.5
    endloop
  endfacet
  facet normal 0.661307 -0.750115 0
    outer loop
      vertex 0.637424 -0.770513 -0.5
      vertex 0.684547 -0.728969 0.5
      vertex 0.637424 -0.770513 0.5
    endloop
  endfacet
  facet normal 0.661307 -0.750115 0
    outer loop
      vertex 0.684547 -0.728969 0.5
      vertex 0.637424 -0.770513 -0.5
      vertex 0.684547 -0.728969 -0.5
    endloop
  endfacet
  facet normal 0.707107 -0.707107 0
    outer loop
      vertex 0.684547 -0.728969 0.5
      vertex 0.728969 -0.684547 -0.5
      vertex 0.728969 -0.684547 0.5
    endloop
  endfacet
  facet normal 0.707107 -0.707107 0
    outer loop
      vertex 0.728969 -0.684547 -0.5
      vertex 0.684547 -0.728969 0.5
      vertex 0.684547 -0.728969 -0.5
    endloop
  endfacet
  facet normal 0.750115 -0.661307 0
    outer loop
      vertex 0.728969 -0.684547 0.5
      vertex 0.770513 -0.637424 -0.5
      vertex 0.770513 -0.637424 0.5
    endloop
  endfacet
  facet normal 0.750115 -0.661307 0
    outer loop
      vertex 0.770513 -0.637424 -0.5
      vertex 0.728969 -0.684547 0.5
      vertex 0.728969 -0.684547 -0.5
    endloop
  endfacet
  facet normal 0.790155 -0.612907 0
    outer loop
      vertex 0.770513 -0.637424 0.5
      vertex 0.809017 -0.587785 -0.5
      vertex 0.809017 -0.587785 0.5
    endloop
  endfacet
  facet normal 0.790155 -0.612907 0
    outer loop
      vertex 0.809017 -0.587785 -0.5
      vertex 0.770513 -0.637424 0.5
      vertex 0.770513 -0.637424 -0.5
    endloop
  endfacet
  facet normal 0.827078 -0.562088 0
    outer loop
      vertex 0.809017 -0.587785 0.5
      vertex 0.844328 -0.535827 -0.5
      vertex 0.844328 -0.535827 0.5
    endloop
  endfacet
  facet normal 0.827078 -0.562088 0
    outer loop
      vertex 0.844328 -0.535827 -0.5
      vertex 0.809017 -0.587785 0.5
      vertex 0.809017 -0.587785 -0.5
    endloop
  endfacet
  facet normal 0.86074 -0.509045 0
    outer loop
      vertex 0.844328 -0.535827 0.5
      vertex 0.876307 -0.481754 -0.5
      vertex 0.876307 -0.481754 0.5
    endloop
  endfacet
  facet normal 0.86074 -0.509045 0
    outer loop
      vertex 0.876307 -0.481754 -0.5
      vertex 0.844328 -0.535827 0.5
      vertex 0.844328 -0.535827 -0.5
    endloop
  endfacet
  facet normal 0.891011 -0.453982 0
    outer loop
      vertex 0.876307 -0.481754 0.5
      vertex 0.904827 -0.425779 -0.5
      vertex 0.904827 -0.425779 0.5
    endloop
  endfacet
  facet normal 0.891011 -0.453982 0
    outer loop
      vertex 0.904827 -0.425779 -0.5
      vertex 0.876307 -0.481754 0.5
      vertex 0.876307 -0.481754 -0.5
    endloop
  endfacet
  facet normal 0.917755 -0.397146 0
    outer loop
      vertex 0.904827 -0.425779 0.5
      vertex 0.929776 -0.368125 -0.5
      vertex 0.929776 -0.368125 0.5
    endloop
  endfacet
  facet normal 0.917755 -0.397146 0
    outer loop
      vertex 0.929776 -0.368125 -0.5
      vertex 0.904827 -0.425779 0.5
      vertex 0.904827 -0.425779 -0.5
    endloop
  endfacet
  facet normal 0.940877 -0.338749 0
    outer loop
      vertex 0.929776 -0.368125 0.5
      vertex 0.951057 -0.309017 -0.5
      vertex 0.951057 -0.309017 0.5
    endloop
  endfacet
  facet normal 0.940877 -0.338749 0
    outer loop
      vertex 0.951057 -0.309017 -0.5
      vertex 0.929776 -0.368125 0.5
      vertex 0.929776 -0.368125 -0.5
    endloop
  endfacet
  facet normal 0.960296 -0.278982 0
    outer loop
      vertex 0.951057 -0.309017 0.5
      vertex 0.968583 -0.24869 -0.5
      vertex 0.968583 -0.24869 0.5
    endloop
  endfacet
  facet normal 0.960296 -0.278982 0
    outer loop
      vertex 0.968583 -0.24869 -0.5
      vertex 0.951057 -0.309017 0.5
      vertex 0.951057 -0.309017 -0.5
    endloop
  endfacet
  facet normal 0.975917 -0.21814 0
    outer loop
      vertex 0.968583 -0.24869 0.5
      vertex 0.982287 -0.187381 -0.5
      vertex 0.982287 -0.187381 0.5
    endloop
  endfacet
  facet normal 0.975917 -0.21814 0
    outer loop
      vertex 0.982287 -0.187381 -0.5
      vertex 0.968583 -0.24869 0.5
      vertex 0.968583 -0.24869 -0.5
    endloop
  endfacet
  facet normal 0.987687 -0.156443 0
    outer loop
      vertex 0.982287 -0.187381 0.5
      vertex 0.992115 -0.125333 -0.5
      vertex 0.992115 -0.125333 0.5
    endloop
  endfacet
  facet normal 0.987687 -0.156443 0
    outer loop
      vertex 0.992115 -0.125333 -0.5
      vertex 0.982287 -0.187381 0.5
      vertex 0.982287 -0.187381 -0.5
    endloop
  endfacet
  facet normal 0.995562 -0.0941082 0
    outer loop
      vertex 0.992115 -0.125333 0.5
      vertex 0.998027 -0.0627905 -0.5
      vertex 0.998027 -0.0627905 0.5
    endloop
  endfacet
  facet normal 0.995562 -0.0941082 0
    outer loop
      vertex 0.998027 -0.0627905 -0.5
      vertex 0.992115 -0.125333 0.5
      vertex 0.992115 -0.125333 -0.5
    endloop
  endfacet
  facet normal 0.999507 -0.0314065 0
    outer loop
      vertex 0.998027 -0.0627905 0.5
      vertex 1 0 -0.5
      vertex 1 0 0.5
    endloop
  endfacet
  facet normal 0.999507 -0.0314065 0
    outer loop
      vertex 1 0 -0.5
      vertex 0.998027 -0.0627905 0.5
      vertex 0.998027 -0.0627905 -0.5
    endloop
  endfacet
  facet normal 0 0 -1
    outer loop
      vertex 0.998027 -0.0627905 -0.5
      vertex 0.998027 0.0627905 -0.5
      vertex 1 0 -0.5
    endloop
  endfacet
  facet normal 0 0 -1
    outer loop
      vertex 0.992115 -0.125333 -0.5
      vertex 0.998027 0.0627905 -0.5
      vertex 0.998027 -0.0627905 -0.5
    endloop
  endfacet
  facet normal 0 0 -1
    outer loop
      vertex 0.992115 -0.125333 -0.5
      vertex 0.992115 0.125333 -0.5
      vertex 0.998027 0.0627905 -0.5
    endloop
  endfacet
  facet normal 0 0 -1
    outer loop
      vertex 0.982287 -0.187381 -0.5
      vertex 0.992115 0.125333 -0.5
      vertex 0.992115 -0.125333 -0.5
    endloop
  endfacet
  facet normal 0 0 -1
    outer loop
      vertex 0.982287 -0.187381 -0.5
      vertex 0.982287 0.187381 -0.5
      vertex 0.992115 0.125333 -0.5
    endloop
  endfacet
  facet normal 0 0 -1
    outer loop
      vertex 0.968583 -0.24869 -0.5
      vertex 0.982287 0.187381 -0.5
      vertex 0.982287 -0.187381 -0.5
    endloop
  endfacet
  facet normal 0 0 -1
    outer loop
      vertex 0.968583 -0.24869 -0.5
      vertex 0.968583 0.24869 -0.5
      vertex 0.982287 0.187381 -0.5
    endloop
  endfacet
  facet normal 0 0 -1
    outer loop
      vertex 0.951057 -0.309017 -0.5
      vertex 0.968583 0.24869 -0.5
      vertex 0.968583 -0.24869 -0.5
    endloop
  endfacet
  facet normal 0 0 -1
    outer loop
      vertex 0.951057 -0.309017 -0.5
      vertex 0.951057 0.309017 -0.5
      vertex 0.968583 0.24869 -0.5
    endloop
  endfacet
  facet normal 0 0 -1
    outer loop
      vertex 0.929776 -0.368125 -0.5
      vertex 0.951057 0.309017 -0.5
      vertex 0.951057 -0.309017 -0.5
    endloop
  endfacet
  facet normal 0 0 -1
    outer loop
      vertex 0.929776 -0.368125 -0.5
      vertex 0.929776 0.368125 -0.5
      vertex 0.951057 0.309017 -0.5
    endloop
  endfacet
  facet normal 0 0 -1
    outer loop
      vertex 0.904827 -0.425779 -0.5
      vertex 0.929776 0.368125 -0.5
      vertex 0.929776 -0.368125 -0.5
    endloop
  endfacet
  facet normal 0 0 -1
    outer loop
      vertex 0.904827 -0.425779 -0.5
      vertex 0.904827 0.425779 -0.5
      vertex 0.929776 0.368125 -0.5
    endloop
  endfacet
  facet normal 0 0 -1
    outer loop
      vertex 0.876307 -0.481754 -0.5
      vertex 0.904827 0.425779 -0.5
      vertex 0.904827 -0.425779 -0.5
    endloop
  endfacet
  facet normal 0 0 -1
    outer loop
      vertex 0.876307 -0.481754 -0.5
      vertex 0.876307 0.481754 -0.5
      vertex 0.904827 0.425779 -0.5
    endloop
  endfacet
  facet normal 0 0 -1
    outer loop
      vertex 0.844328 -0.535827 -0.5
      vertex 0.876307 0.481754 -0.5
      vertex 0.876307 -0.481754 -0.5
    endloop
  endfacet
  facet normal 0 0 -1
    outer loop
      vertex 0.844328 -0.535827 -0.5
      vertex 0.844328 0.535827 -0.5
      vertex 0.876307 0.481754 -0.5
    endloop
  endfacet
  facet normal 0 0 -1
    outer loop
      vertex 0.809017 -0.587785 -0.5
      vertex 0.844328 0.535827 -0.5
      vertex 0.844328 -0.535827 -0.5
    endloop
  endfacet
  facet normal 0 0 -1
    outer loop
      vertex 0.809017 -0.587785 -0.5
      vertex 0.809017 0.587785 -0.5
      vertex 0.844328 0.535827 -0.5
    endloop
  endfacet
  facet normal 0 0 -1
    outer loop
      vertex 0.770513 -0.637424 -0.5
      vertex 0.809017 0.587785 -0.5
      vertex 0.809017 -0.587785 -0.5
    endloop
  endfacet
  facet normal 0 0 -1
    outer loop
      vertex 0.770513 -0.637424 -0.5
      vertex 0.770513 0.637424 -0.5
      vertex 0.809017 0.587785 -0.5
    endloop
  endfacet
  facet normal 0 0 -1
    outer loop
      vertex 0.728969 -0.684547 -0.5
      vertex 0.770513 0.637424 -0.5
      vertex 0.770513 -0.637424 -0.5
    endloop
  endfacet
  facet normal 0 0 -1
    outer loop
      vertex 0.728969 -0.684547 -0.5
      vertex 0.728969 0.684547 -0.5
      vertex 0.770513 0.637424 -0.5
    endloop
  endfacet
  facet normal 0 0 -1
    outer loop
      vertex 0.684547 -0.728969 -0.5
      vertex 0.728969 0.684547 -0.5
      vertex 0.728969 -0.684547 -0.5
    endloop
  endfacet
  facet normal 0 0 -1
    outer loop
      vertex 0.684547 -0.728969 -0.5
      vertex 0.684547 0.728969 -0.5
      vertex 0.728969 0.684547 -0.5
    endloop
  endfacet
  facet normal 0 0 -1
    outer loop
      vertex 0.637424 -0.770513 -0.5
      vertex 0.684547 0.728969 -0.5
      vertex 0.684547 -0.728969 -0.5
    endloop
  endfacet
  facet normal 0 0 -1
    outer loop
      vertex 0.637424 -0.770513 -0.5
      vertex 0.637424 0.770513 -0.5
      vertex 0.684547 0.728969 -0.5
    endloop
  endfacet
  facet normal 0 0 -1
    outer loop
      vertex 0.587785 -0.809017 -0.5
      vertex 0.637424 0.770513 -0.5
      vertex 0.637424 -0.770513 -0.5
    endloop
  endfacet
  facet normal 0 0 -1
    outer loop
      vertex 0.587785 -0.809017 -0.5
      vertex 0.587785 0.809017 -0.5
      vertex 0.637424 0.770513 -0.5
    endloop
  endfacet
  facet normal 0 0 -1
    outer loop
      vertex 0.535827 -0.844328 -0.5
      vertex 0.587785 0.809017 -0.5
      vertex 0.587785 -0.809017 -0.5
    endloop
  endfacet
  facet normal 0 0 -1
    outer loop
      vertex 0.535827 -0.844328 -0.5
      vertex 0.535827 0.844328 -0.5
      vertex 0.587785 0.809017 -0.5
    endloop
  endfacet
  facet normal 0 0 -1
    outer loop
      vertex 0.481754 -0.876307 -0.5
      vertex 0.535827 0.844328 -0.5
      vertex 0.535827 -0.844328 -0.5
    endloop
  endfacet
  facet normal 0 0 -1
    outer loop
      vertex 0.481754 -0.876307 -0.5
      vertex 0.481754 0.876307 -0.5
      vertex 0.535827 0.844328 -0.5
    endloop
  endfacet
  facet normal 0 0 -1
    outer loop
      vertex 0.425779 -0.904827 -0.5
      vertex 0.481754 0.876307 -0.5
      vertex 0.481754 -0.876307 -0.5
    endloop
  endfacet
  facet normal 0 0 -1
    outer loop
      vertex 0.425779 -0.904827 -0.5
      vertex 0.425779 0.904827 -0.5
      vertex 0.481754 0.876307 -0.5
    endloop
  endfacet
  facet normal 0 0 -1
    outer loop
      vertex 0.368125 -0.929776 -0.5
      vertex 0.425779 0.904827 -0.5
      vertex 0.425779 -0.904827 -0.5
    endloop
  endfacet
  facet normal 0 0 -1
    outer loop
      vertex 0.368125 -0.929776 -0.5
      vertex 0.368125 0.929776 -0.5
      vertex 0.425779 0.904827 -0.5
    endloop
  endfacet
  facet normal 0 0 -1
    outer loop
      vertex 0.309017 -0.951057 -0.5
      vertex 0.368125 0.929776 -0.5
      vertex 0.368125 -0.929776 -0.5
    endloop
  endfacet
  facet normal 0 0 -1
    outer loop
      vertex 0.309017 -0.951057 -0.5
      vertex 0.309017 0.951057 -0.5
      vertex 0.368125 0.929776 -0.5
    endloop
  endfacet
  facet normal 0 0 -1
    outer loop
      vertex 0.24869 -0.968583 -0.5
      vertex 0.309017 0.951057 -0.5
      vertex 0.309017 -0.951057 -0.5
    endloop
  endfacet
  facet normal 0 0 -1
    outer loop
      vertex 0.24869 -0.968583 -0.5
      vertex 0.24869 0.968583 -0.5
      vertex 0.309017 0.951057 -0.5
    endloop
  endfacet
  facet normal 0 0 -1
    outer loop
      vertex 0.187381 -0.982287 -0.5
      vertex 0.24869 0.968583 -0.5
      vertex 0.24869 -0.968583 -0.5
    endloop
  endfacet
  facet normal 0 0 -1
    outer loop
      vertex 0.187381 -0.982287 -0.5
      vertex 0.187381 0.982287 -0.5
      vertex 0.24869 0.968583 -0.5
    endloop
  endfacet
  facet normal 0 0 -1
    outer loop
      vertex 0.125333 -0.992115 -0.5
      vertex 0.187381 0.982287 -0.5
      vertex 0.187381 -0.982287 -0.5
    endloop
  endfacet
  facet normal 0 0 -1
    outer loop
      vertex 0.125333 -0.992115 -0.5
      vertex 0.125333 0.992115 -0.5
      vertex 0.187381 0.982287 -0.5
    endloop
  endfacet
  facet normal 0 0 -1
    outer loop
      vertex 0.0627905 -0.998027 -0.5
      vertex 0.125333 0.992115 -0.5
      vertex 0.125333 -0.992115 -0.5
    endloop
  endfacet
  facet normal 0 0 -1
    outer loop
      vertex 0.0627905 -0.998027 -0.5
      vertex 0.0627905 0.998027 -0.5
      vertex 0.125333 0.992115 -0.5
    endloop
  endfacet
  facet normal 0 0 -1
    outer loop
      vertex -0 -1 -0.5
      vertex 0.0627905 0.998027 -0.5
      vertex 0.0627905 -0.998027 -0.5
    endloop
  endfacet
  facet normal 0 0 -1
    outer loop
      vertex -0 -1 -0.5
      vertex 0 1 -0.5
      vertex 0.0627905 0.998027 -0.5
    endloop
  endfacet
  facet normal 0 0 -1
    outer loop
      vertex -0.0627905 -0.998027 -0.5
      vertex 0 1 -0.5
      vertex -0 -1 -0.5
    endloop
  endfacet
  facet normal 0 0 -1
    outer loop
      vertex -0.0627905 -0.998027 -0.5
      vertex -0.0627905 0.998027 -0.5
      vertex 0 1 -0.5
    endloop
  endfacet
  facet normal 0 0 -1
    outer loop
      vertex -0.125333 -0.992115 -0.5
      vertex -0.0627905 0.998027 -0.5
      vertex -0.0627905 -0.998027 -0.5
    endloop
  endfacet
  facet normal 0 0 -1
    outer loop
      vertex -0.125333 -0.992115 -0.5
      vertex -0.125333 0.992115 -0.5
      vertex -0.0627905 0.998027 -0.5
    endloop
  endfacet
  facet normal 0 0 -1
    outer loop
      vertex -0.187381 -0.982287 -0.5
      vertex -0.125333 0.992115 -0.5
      vertex -0.125333 -0.992115 -0.5
    endloop
  endfacet
  facet normal 0 0 -1
    outer loop
      vertex -0.187381 -0.982287 -0.5
      vertex -0.187381 0.982287 -0.5
      vertex -0.125333 0.992115 -0.5
    endloop
  endfacet
  facet normal 0 0 -1
    outer loop
      vertex -0.24869 -0.968583 -0.5
      vertex -0.187381 0.982287 -0.5
      vertex -0.187381 -0.982287 -0.5
    endloop
  endfacet
  facet normal 0 0 -1
    outer loop
      vertex -0.24869 -0.968583 -0.5
      vertex -0.24869 0.968583 -0.5
      vertex -0.187381 0.982287 -0.5
    endloop
  endfacet
  facet normal 0 0 -1
    outer loop
      vertex -0.309017 -0.951057 -0.5
      vertex -0.24869 0.968583 -0.5
      vertex -0.24869 -0.968583 -0.5
    endloop
  endfacet
  facet normal 0 0 -1
    outer loop
      vertex -0.309017 -0.951057 -0.5
      vertex -0.309017 0.951057 -0.5
      vertex -0.24869 0.968583 -0.5
    endloop
  endfacet
  facet normal 0 0 -1
    outer loop
      vertex -0.368125 -0.929776 -0.5
      vertex -0.309017 0.951057 -0.5
      vertex -0.309017 -0.951057 -0.5
    endloop
  endfacet
  facet normal 0 0 -1
    outer loop
      vertex -0.368125 -0.929776 -0.5
      vertex -0.368125 0.929776 -0.5
      vertex -0.309017 0.951057 -0.5
    endloop
  endfacet
  facet normal 0 0 -1
    outer loop
      vertex -0.425779 -0.904827 -0.5
      vertex -0.368125 0.929776 -0.5
      vertex -0.368125 -0.929776 -0.5
    endloop
  endfacet
  facet normal 0 0 -1
    outer loop
      vertex -0.425779 -0.904827 -0.5
      vertex -0.425779 0.904827 -0.5
      vertex -0.368125 0.929776 -0.5
    endloop
  endfacet
  facet normal 0 0 -1
    outer loop
      vertex -0.481754 -0.876307 -0.5
      vertex -0.425779 0.904827 -0.5
      vertex -0.425779 -0.904827 -0.5
    endloop
  endfacet
  facet normal 0 0 -1
    outer loop
      vertex -0.481754 -0.876307 -0.5
      vertex -0.481754 0.876307 -0.5
      vertex -0.425779 0.904827 -0.5
    endloop
  endfacet
  facet normal 0 0 -1
    outer loop
      vertex -0.535827 -0.844328 -0.5
      vertex -0.481754 0.876307 -0.5
      vertex -0.481754 -0.876307 -0.5
    endloop
  endfacet
  facet normal 0 0 -1
    outer loop
      vertex -0.535827 -0.844328 -0.5
      vertex -0.535827 0.844328 -0.5
      vertex -0.481754 0.876307 -0.5
    endloop
  endfacet
  facet normal 0 0 -1
    outer loop
      vertex -0.587785 -0.809017 -0.5
      vertex -0.535827 0.844328 -0.5
      vertex -0.535827 -0.844328 -0.5
    endloop
  endfacet
  facet normal 0 0 -1
    outer loop
      vertex -0.587785 -0.809017 -0.5
      vertex -0.587785 0.809017 -0.5
      vertex -0.535827 0.844328 -0.5
    endloop
  endfacet
  facet normal 0 0 -1
    outer loop
      vertex -0.637424 -0.770513 -0.5
      vertex -0.587785 0.809017 -0.5
      vertex -0.587785 -0.809017 -0.5
    endloop
  endfacet
  facet normal 0 0 -1
    outer loop
      vertex -0.637424 -0.770513 -0.5
      vertex -0.637424 0.770513 -0.5
      vertex -0.587785 0.809017 -0.5
    endloop
  endfacet
  facet normal 0 0 -1
    outer loop
      vertex -0.684547 -0.728969 -0.5
      vertex -0.637424 0.770513 -0.5
      vertex -0.637424 -0.770513 -0.5
    endloop
  endfacet
  facet normal 0 0 -1
    outer loop
      vertex -0.684547 -0.728969 -0.5
      vertex -0.684547 0.728969 -0.5
      vertex -0.637424 0.770513 -0.5
    endloop
  endfacet
  facet normal 0 0 -1
    outer loop
      vertex -0.728969 -0.684547 -0.5
      vertex -0.684547 0.728969 -0.5
      vertex -0.684547 -0.728969 -0.5
    endloop
  endfacet
  facet normal 0 0 -1
    outer loop
      vertex -0.728969 -0.684547 -0.5
      vertex -0.728969 0.684547 -0.5
      vertex -0.684547 0.728969 -0.5
    endloop
  endfacet
  facet normal 0 0 -1
    outer loop
      vertex -0.770513 -0.637424 -0.5
      vertex -0.728969 0.684547 -0.5
      vertex -0.728969 -0.684547 -0.5
    endloop
  endfacet
  facet normal 0 0 -1
    outer loop
      vertex -0.770513 -0.637424 -0.5
      vertex -0.770513 0.637424 -0.5
      vertex -0.728969 0.684547 -0.5
    endloop
  endfacet
  facet normal 0 0 -1
    outer loop
      vertex -0.809017 -0.587785 -0.5
      vertex -0.770513 0.637424 -0.5
      vertex -0.770513 -0.637424 -0.5
    endloop
  endfacet
  facet normal 0 0 -1
    outer loop
      vertex -0.809017 -0.587785 -0.5
      vertex -0.809017 0.587785 -0.5
      vertex -0.770513 0.637424 -0.5
    endloop
  endfacet
  facet normal 0 0 -1
    outer loop
      vertex -0.844328 -0.535827 -0.5
      vertex -0.809017 0.587785 -0.5
      vertex -0.809017 -0.587785 -0.5
    endloop
  endfacet
  facet normal 0 0 -1
    outer loop
      vertex -0.844328 -0.535827 -0.5
      vertex -0.844328 0.535827 -0.5
      vertex -0.809017 0.587785 -0.5
    endloop
  endfacet
  facet normal 0 0 -1
    outer loop
      vertex -0.876307 -0.481754 -0.5
      vertex -0.844328 0.535827 -0.5
      vertex -0.844328 -0.535827 -0.5
    endloop
  endfacet
  facet normal 0 0 -1
    outer loop
      vertex -0.876307 -0.481754 -0.5
      vertex -0.876307 0.481754 -0.5
      vertex -0.844328 0.535827 -0.5
    endloop
  endfacet
  facet normal 0 0 -1
    outer loop
      vertex -0.904827 -0.425779 -0.5
      vertex -0.876307 0.481754 -0.5
      vertex -0.876307 -0.481754 -0.5
    endloop
  endfacet
  facet normal 0 0 -1
    outer loop
      vertex -0.904827 -0.425779 -0.5
      vertex -0.904827 0.425779 -0.5
      vertex -0.876307 0.481754 -0.5
    endloop
  endfacet
  facet normal 0 0 -1
    outer loop
      vertex -0.929776 -0.368125 -0.5
      vertex -0.904827 0.425779 -0.5
      vertex -0.904827 -0.425779 -0.5
    endloop
  endfacet
  facet normal 0 0 -1
    outer loop
      vertex -0.929776 -0.368125 -0.5
      vertex -0.929776 0.368125 -0.5
      vertex -0.904827 0.425779 -0.5
    endloop
  endfacet
  facet normal 0 0 -1
    outer loop
      vertex -0.951057 -0.309017 -0.5
      vertex -0.929776 0.368125 -0.5
      vertex -0.929776 -0.368125 -0.5
    endloop
  endfacet
  facet normal 0 0 -1
    outer loop
      vertex -0.951057 -0.309017 -0.5
      vertex -0.951057 0.309017 -0.5
      vertex -0.929776 0.368125 -0.5
    endloop
  endfacet
  facet normal 0 0 -1
    outer loop
      vertex -0.968583 -0.24869 -0.5
      vertex -0.951057 0.309017 -0.5
      vertex -0.951057 -0.309017 -0.5
    endloop
  endfacet
  facet normal 0 0 -1
    outer loop
      vertex -0.968583 -0.24869 -0.5
      vertex -0.968583 0.24869 -0.5
      vertex -0.951057 0.309017 -0.5
    endloop
  endfacet
  facet normal 0 0 -1
    outer loop
      vertex -0.982287 -0.187381 -0.5
      vertex -0.968583 0.24869 -0.5
      vertex -0.968583 -0.24869 -0.5
    endloop
  endfacet
  facet normal 0 0 -1
    outer loop
      vertex -0.982287 -0.187381 -0.5
      vertex -0.982287 0.187381 -0.5
      vertex -0.968583 0.24869 -0.5
    endloop
  endfacet
  facet normal 0 0 -1
    outer loop
      vertex -0.992115 -0.125333 -0.5
      vertex -0.982287 0.187381 -0.5
      vertex -0.982287 -0.187381 -0.5
    endloop
  endfacet
  facet normal 0 0 -1
    outer loop
      vertex -0.992115 -0.125333 -0.5
      vertex -0.992115 0.125333 -0.5
      vertex -0.982287 0.187381 -0.5
    endloop
  endfacet
  facet normal 0 0 -1
    outer loop
      vertex -0.998027 -0.0627905 -0.5
      vertex -0.992115 0.125333 -0.5
      vertex -0.992115 -0.125333 -0.5
    endloop
  endfacet
  facet normal 0 0 -1
    outer loop
      vertex -0.998027 -0.0627905 -0.5
      vertex -0.998027 0.0627905 -0.5
      vertex -0.992115 0.125333 -0.5
    endloop
  endfacet
  facet normal 0 -0 -1
    outer loop
      vertex -0.998027 0.0627905 -0.5
      vertex -0.998027 -0.0627905 -0.5
      vertex -1 -0 -0.5
    endloop
  endfacet
  facet normal 0 0 1
    outer loop
      vertex 0.998027 0.0627905 0.5
      vertex 0.998027 -0.0627905 0.5
      vertex 1 0 0.5
    endloop
  endfacet
  facet normal 0 0 1
    outer loop
      vertex 0.992115 0.125333 0.5
      vertex 0.998027 -0.0627905 0.5
      vertex 0.998027 0.0627905 0.5
    endloop
  endfacet
  facet normal 0 0 1
    outer loop
      vertex 0.992115 0.125333 0.5
      vertex 0.992115 -0.125333 0.5
      vertex 0.998027 -0.0627905 0.5
    endloop
  endfacet
  facet normal 0 0 1
    outer loop
      vertex 0.982287 0.187381 0.5
      vertex 0.992115 -0.125333 0.5
      vertex 0.992115 0.125333 0.5
    endloop
  endfacet
  facet normal 0 0 1
    outer loop
      vertex 0.982287 0.187381 0.5
      vertex 0.982287 -0.187381 0.5
      vertex 0.992115 -0.125333 0.5
    endloop
  endfacet
  facet normal 0 0 1
    outer loop
      vertex 0.968583 0.24869 0.5
      vertex 0.982287 -0.187381 0.5
      vertex 0.982287 0.187381 0.5
    endloop
  endfacet
  facet normal 0 0 1
    outer loop
      vertex 0.968583 0.24869 0.5
      vertex 0.968583 -0.24869 0.5
      vertex 0.982287 -0.187381 0.5
    endloop
  endfacet
  facet normal 0 0 1
    outer loop
      vertex 0.951057 0.309017 0.5
      vertex 0.968583 -0.24869 0.5
      vertex 0.968583 0.24869 0.5
    endloop
  endfacet
  facet normal 0 0 1
    outer loop
      vertex 0.951057 0.309017 0.5
      vertex 0.951057 -0.309017 0.5
      vertex 0.968583 -0.24869 0.5
    endloop
  endfacet
  facet normal 0 0 1
    outer loop
      vertex 0.929776 0.368125 0.5
      vertex 0.951057 -0.309017 0.5
      vertex 0.951057 0.309017 0.5
    endloop
  endfacet
  facet normal 0 0 1
    outer loop
      vertex 0.929776 0.368125 0.5
      vertex 0.929776 -0.368125 0.5
      vertex 0.951057 -0.309017 0.5
    endloop
  endfacet
  facet normal 0 0 1
    outer loop
      vertex 0.904827 0.425779 0.5
      vertex 0.929776 -0.368125 0.5
      vertex 0.929776 0.368125 0.5
    endloop
  endfacet
  facet normal 0 0 1
    outer loop
      vertex 0.904827 0.425779 0.5
      vertex 0.904827 -0.425779 0.5
      vertex 0.929776 -0.368125 0.5
    endloop
  endfacet
  facet normal 0 0 1
    outer loop
      vertex 0.876307 0.481754 0.5
      vertex 0.904827 -0.425779 0.5
      vertex 0.904827 0.425779 0.5
    endloop
  endfacet
  facet normal 0 0 1
    outer loop
      vertex 0.876307 0.481754 0.5
      vertex 0.876307 -0.481754 0.5
      vertex 0.904827 -0.425779 0.5
    endloop
  endfacet
  facet normal 0 0 1
    outer loop
      vertex 0.844328 0.535827 0.5
      vertex 0.876307 -0.481754 0.5
      vertex 0.876307 0.481754 0.5
    endloop
  endfacet
  facet normal 0 0 1
    outer loop
      vertex 0.844328 0.535827 0.5
      vertex 0.844328 -0.535827 0.5
      vertex 0.876307 -0.481754 0.5
    endloop
  endfacet
  facet normal 0 0 1
    outer loop
      vertex 0.809017 0.587785 0.5
      vertex 0.844328 -0.535827 0.5
      vertex 0.844328 0.535827 0.5
    endloop
  endfacet
  facet normal 0 0 1
    outer loop
      vertex 0.809017 0.587785 0.5
      vertex 0.809017 -0.587785 0.5
      vertex 0.844328 -0.535827 0.5
    endloop
  endfacet
  facet normal 0 0 1
    outer loop
      vertex 0.770513 0.637424 0.5
      vertex 0.809017 -0.587785 0.5
      vertex 0.809017 0.587785 0.5
    endloop
  endfacet
  facet normal 0 0 1
    outer loop
      vertex 0.770513 0.637424 0.5
      vertex 0.770513 -0.637424 0.5
      vertex 0.809017 -0.587785 0.5
    endloop
  endfacet
  facet normal 0 0 1
    outer loop
      vertex 0.728969 0.684547 0.5
      vertex 0.770513 -0.637424 0.5
      vertex 0.770513 0.637424 0.5
    endloop
  endfacet
  facet normal 0 0 1
    outer loop
      vertex 0.728969 0.684547 0.5
      vertex 0.728969 -0.684547 0.5
      vertex 0.770513 -0.637424 0.5
    endloop
  endfacet
  facet normal 0 0 1
    outer loop
      vertex 0.684547 0.728969 0.5
      vertex 0.728969 -0.684547 0.5
      vertex 0.728969 0.684547 0.5
    endloop
  endfacet
  facet normal 0 0 1
    outer loop
      vertex 0.684547 0.728969 0.5
      vertex 0.684547 -0.728969 0.5
      vertex 0.728969 -0.684547 0.5
    endloop
  endfacet
  facet normal 0 0 1
    outer loop
      vertex 0.637424 0.770513 0.5
      vertex 0.684547 -0.728969 0.5
      vertex 0.684547 0.728969 0.5
    endloop
  endfacet
  facet normal 0 0 1
    outer loop
      vertex 0.637424 0.770513 0.5
      vertex 0.637424 -0.770513 0.5
      vertex 0.684547 -0.728969 0.5
    endloop
  endfacet
  facet normal 0 0 1
    outer loop
      vertex 0.587785 0.809017 0.5
      vertex 0.637424 -0.770513 0.5
      vertex 0.637424 0.770513 0.5
    endloop
  endfacet
  facet normal 0 0 1
    outer loop
      vertex 0.587785 0.809017 0.5
      vertex 0.587785 -0.809017 0.5
      vertex 0.637424 -0.770513 0.5
    endloop
  endfacet
  facet normal 0 0 1
    outer loop
      vertex 0.535827 0.844328 0.5
      vertex 0.587785 -0.809017 0.5
      vertex 0.587785 0.809017 0.5
    endloop
  endfacet
  facet normal 0 0 1
    outer loop
      vertex 0.535827 0.844328 0.5
      vertex 0.535827 -0.844328 0.5
      vertex 0.587785 -0.809017 0.5
    endloop
  endfacet
  facet normal 0 0 1
    outer loop
      vertex 0.481754 0.876307 0.5
      vertex 0.535827 -0.844328 0.5
      vertex 0.535827 0.844328 0.5
    endloop
  endfacet
  facet normal 0 0 1
    outer loop
      vertex 0.481754 0.876307 0.5
      vertex 0.481754 -0.876307 0.5
      vertex 0.535827 -0.844328 0.5
    endloop
  endfacet
  facet normal 0 0 1
    outer loop
      vertex 0.425779 0.904827 0.5
      vertex 0.481754 -0.876307 0.5
      vertex 0.481754 0.876307 0.5
    endloop
  endfacet
  facet normal 0 0 1
    outer loop
      vertex 0.425779 0.904827 0.5
      vertex 0.425779 -0.904827 0.5
      vertex 0.481754 -0.876307 0.5
    endloop
  endfacet
  facet normal 0 0 1
    outer loop
      vertex 0.368125 0.929776 0.5
      vertex 0.425779 -0.904827 0.5
      vertex 0.425779 0.904827 0.5
    endloop
  endfacet
  facet normal 0 0 1
    outer loop
      vertex 0.368125 0.929776 0.5
      vertex 0.368125 -0.929776 0.5
      vertex 0.425779 -0.904827 0.5
    endloop
  endfacet
  facet normal 0 0 1
    outer loop
      vertex 0.309017 0.951057 0.5
      vertex 0.368125 -0.929776 0.5
      vertex 0.368125 0.929776 0.5
    endloop
  endfacet
  facet normal 0 0 1
    outer loop
      vertex 0.309017 0.951057 0.5
      vertex 0.309017 -0.951057 0.5
      vertex 0.368125 -0.929776 0.5
    endloop
  endfacet
  facet normal 0 0 1
    outer loop
      vertex 0.24869 0.968583 0.5
      vertex 0.309017 -0.951057 0.5
      vertex 0.309017 0.951057 0.5
    endloop
  endfacet
  facet normal 0 0 1
    outer loop
      vertex 0.24869 0.968583 0.5
      vertex 0.24869 -0.968583 0.5
      vertex 0.309017 -0.951057 0.5
    endloop
  endfacet
  facet normal 0 0 1
    outer loop
      vertex 0.187381 0.982287 0.5
      vertex 0.24869 -0.968583 0.5
      vertex 0.24869 0.968583 0.5
    endloop
  endfacet
  facet normal 0 0 1
    outer loop
      vertex 0.187381 0.982287 0.5
      vertex 0.187381 -0.982287 0.5
      vertex 0.24869 -0.968583 0.5
    endloop
  endfacet
  facet normal 0 0 1
    outer loop
      vertex 0.125333 0.992115 0.5
      vertex 0.187381 -0.982287 0.5
      vertex 0.187381 0.982287 0.5
    endloop
  endfacet
  facet normal 0 0 1
    outer loop
      vertex 0.125333 0.992115 0.5
      vertex 0.125333 -0.992115 0.5
      vertex 0.187381 -0.982287 0.5
    endloop
  endfacet
  facet normal 0 0 1
    outer loop
      vertex 0.0627905 0.998027 0.5
      vertex 0.125333 -0.992115 0.5
      vertex 0.125333 0.992115 0.5
    endloop
  endfacet
  facet normal 0 0 1
    outer loop
      vertex 0.0627905 0.998027 0.5
      vertex 0.0627905 -0.998027 0.5
      vertex 0.125333 -0.992115 0.5
    endloop
  endfacet
  facet normal 0 0 1
    outer loop
      vertex 0 1 0.5
      vertex 0.0627905 -0.998027 0.5
      vertex 0.0627905 0.998027 0.5
    endloop
  endfacet
  facet normal 0 0 1
    outer loop
      vertex 0 1 0.5
      vertex -0 -1 0.5
      vertex 0.0627905 -0.998027 0.5
    endloop
  endfacet
  facet normal -0 0 1
    outer loop
      vertex -0.0627905 0.998027 0.5
      vertex -0 -1 0.5
      vertex 0 1 0.5
    endloop
  endfacet
  facet normal 0 0 1
    outer loop
      vertex -0.0627905 0.998027 0.5
      vertex -0.0627905 -0.998027 0.5
      vertex -0 -1 0.5
    endloop
  endfacet
  facet normal -0 0 1
    outer loop
      vertex -0.125333 0.992115 0.5
      vertex -0.0627905 -0.998027 0.5
      vertex -0.0627905 0.998027 0.5
    endloop
  endfacet
  facet normal 0 0 1
    outer loop
      vertex -0.125333 0.992115 0.5
      vertex -0.125333 -0.992115 0.5
      vertex -0.0627905 -0.998027 0.5
    endloop
  endfacet
  facet normal -0 0 1
    outer loop
      vertex -0.187381 0.982287 0.5
      vertex -0.125333 -0.992115 0.5
      vertex -0.125333 0.992115 0.5
    endloop
  endfacet
  facet normal 0 0 1
    outer loop
      vertex -0.187381 0.982287 0.5
      vertex -0.187381 -0.982287 0.5
      vertex -0.125333 -0.992115 0.5
    endloop
  endfacet
  facet normal -0 0 1
    outer loop
      vertex -0.24869 0.968583 0.5
      vertex -0.187381 -0.982287 0.5
      vertex -0.187381 0.982287 0.5
    endloop
  endfacet
  facet normal 0 0 1
    outer loop
      vertex -0.24869 0.968583 0.5
      vertex -0.24869 -0.968583 0.5
      vertex -0.187381 -0.982287 0.5
    endloop
  endfacet
  facet normal -0 0 1
    outer loop
      vertex -0.309017 0.951057 0.5
      vertex -0.24869 -0.968583 0.5
      vertex -0.24869 0.968583 0.5
    endloop
  endfacet
  facet normal 0 0 1
    outer loop
      vertex -0.309017 0.951057 0.5
      vertex -0.309017 -0.951057 0.5
      vertex -0.24869 -0.968583 0.5
    endloop
  endfacet
  facet normal -0 0 1
    outer loop
      vertex -0.368125 0.929776 0.5
      vertex -0.309017 -0.951057 0.5
      vertex -0.309017 0.951057 0.5
    endloop
  endfacet
  facet normal 0 0 1
    outer loop
      vertex -0.368125 0.929776 0.5
      vertex -0.368125 -0.929776 0.5
      vertex -0.309017 -0.951057 0.5
    endloop
  endfacet
  facet normal -0 0 1
    outer loop
      vertex -0.425779 0.904827 0.5
      vertex -0.368125 -0.929776 0.5
      vertex -0.368125 0.929776 0.5
    endloop
  endfacet
  facet normal 0 0 1
    outer loop
      vertex -0.425779 0.904827 0.5
      vertex -0.425779 -0.904827 0.5
      vertex -0.368125 -0.929776 0.5
    endloop
  endfacet
  facet normal -0 0 1
    outer loop
      vertex -0.481754 0.876307 0.5
      vertex -0.425779 -0.904827 0.5
      vertex -0.425779 0.904827 0.5
    endloop
  endfacet
  facet normal 0 0 1
    outer loop
      vertex -0.481754 0.876307 0.5
      vertex -0.481754 -0.876307 0.5
      vertex -0.425779 -0.904827 0.5
    endloop
  endfacet
  facet normal -0 0 1
    outer loop
      vertex -0.535827 0.844328 0.5
      vertex -0.481754 -0.876307 0.5
      vertex -0.481754 0.876307 0.5
    endloop
  endfacet
  facet normal 0 0 1
    outer loop
      vertex -0.535827 0.844328 0.5
      vertex -0.535827 -0.844328 0.5
      vertex -0.481754 -0.876307 0.5
    endloop
  endfacet
  facet normal -0 0 1
    outer loop
      vertex -0.587785 0.809017 0.5
      vertex -0.535827 -0.844328 0.5
      vertex -0.535827 0.844328 0.5
    endloop
  endfacet
  facet normal 0 0 1
    outer loop
      vertex -0.587785 0.809017 0.5
      vertex -0.587785 -0.809017 0.5
      vertex -0.535827 -0.844328 0.5
    endloop
  endfacet
  facet normal -0 0 1
    outer loop
      vertex -0.637424 0.770513 0.5
      vertex -0.587785 -0.809017 0.5
      vertex -0.587785 0.809017 0.5
    endloop
  endfacet
  facet normal 0 0 1
    outer loop
      vertex -0.637424 0.770513 0.5
      vertex -0.637424 -0.770513 0.5
      vertex -0.587785 -0.809017 0.5
    endloop
  endfacet
  facet normal -0 0 1
    outer loop
      vertex -0.684547 0.728969 0.5
      vertex -0.637424 -0.770513 0.5
      vertex -0.637424 0.770513 0.5
    endloop
  endfacet
  facet normal 0 0 1
    outer loop
      vertex -0.684547 0.728969 0.5
      vertex -0.684547 -0.728969 0.5
      vertex -0.637424 -0.770513 0.5
    endloop
  endfacet
  facet normal -0 0 1
    outer loop
      vertex -0.728969 0.684547 0.5
      vertex -0.684547 -0.728969 0.5
      vertex -0.684547 0.728969 0.5
    endloop
  endfacet
  facet normal 0 0 1
    outer loop
      vertex -0.728969 0.684547 0.5
      vertex -0.728969 -0.684547 0.5
      vertex -0.684547 -0.728969 0.5
    endloop
  endfacet
  facet normal -0 0 1
    outer loop
      vertex -0.770513 0.637424 0.5
      vertex -0.728969 -0.684547 0.5
      vertex -0.728969 0.684547 0.5
    endloop
  endfacet
  facet normal 0 0 1
    outer loop
      vertex -0.770513 0.637424 0.5
      vertex -0.770513 -0.637424 0.5
      vertex -0.728969 -0.684547 0.5
    endloop
  endfacet
  facet normal -0 0 1
    outer loop
      vertex -0.809017 0.587785 0.5
      vertex -0.770513 -0.637424 0.5
      vertex -0.770513 0.637424 0.5
    endloop
  endfacet
  facet normal 0 0 1
    outer loop
      vertex -0.809017 0.587785 0.5
      vertex -0.809017 -0.587785 0.5
      vertex -0.770513 -0.637424 0.5
    endloop
  endfacet
  facet normal -0 0 1
    outer loop
      vertex -0.844328 0.535827 0.5
      vertex -0.809017 -0.587785 0.5
      vertex -0.809017 0.587785 0.5
    endloop
  endfacet
  facet normal 0 0 1
    outer loop
      vertex -0.844328 0.535827 0.5
      vertex -0.844328 -0.535827 0.5
      vertex -0.809017 -0.587785 0.5
    endloop
  endfacet
  facet normal -0 0 1
    outer loop
      vertex -0.876307 0.481754 0.5
      vertex -0.844328 -0.535827 0.5
      vertex -0.844328 0.535827 0.5
    endloop
  endfacet
  facet normal 0 0 1
    outer loop
      vertex -0.876307 0.481754 0.5
      vertex -0.876307 -0.481754 0.5
      vertex -0.844328 -0.535827 0.5
    endloop
  endfacet
  facet normal -0 0 1
    outer loop
      vertex -0.904827 0.425779 0.5
      vertex -0.876307 -0.481754 0.5
      vertex -0.876307 0.481754 0.5
    endloop
  endfacet
  facet normal 0 0 1
    outer loop
      vertex -0.904827 0.425779 0.5
      vertex -0.904827 -0.425779 0.5
      vertex -0.876307 -0.481754 0.5
    endloop
  endfacet
  facet normal -0 0 1
    outer loop
      vertex -0.929776 0.368125 0.5
      vertex -0.904827 -0.425779 0.5
      vertex -0.904827 0.425779 0.5
    endloop
  endfacet
  facet normal 0 0 1
    outer loop
      vertex -0.929776 0.368125 0.5
      vertex -0.929776 -0.368125 0.5
      vertex -0.904827 -0.425779 0.5
    endloop
  endfacet
  facet normal -0 0 1
    outer loop
      vertex -0.951057 0.309017 0.5
      vertex -0.929776 -0.368125 0.5
      vertex -0.929776 0.368125 0.5
    endloop
  endfacet
  facet normal 0 0 1
    outer loop
      vertex -0.951057 0.309017 0.5
      vertex -0.951057 -0.309017 0.5
      vertex -0.929776 -0.368125 0.5
    endloop
  endfacet
  facet normal -0 0 1
    outer loop
      vertex -0.968583 0.24869 0.5
      vertex -0.951057 -0.309017 0.5
      vertex -0.951057 0.309017 0.5
    endloop
  endfacet
  facet normal 0 0 1
    outer loop
      vertex -0.968583 0.24869 0.5
      vertex -0.968583 -0.24869 0.5
      vertex -0.951057 -0.309017 0.5
    endloop
  endfacet
  facet normal -0 0 1
    outer loop
      vertex -0.982287 0.187381 0.5
      vertex -0.968583 -0.24869 0.5
      vertex -0.968583 0.24869 0.5
    endloop
  endfacet
  facet normal 0 0 1
    outer loop
      vertex -0.982287 0.187381 0.5
      vertex -0.982287 -0.187381 0.5
      vertex -0.968583 -0.24869 0.5
    endloop
  endfacet
  facet normal -0 0 1
    outer loop
      vertex -0.992115 0.125333 0.5
      vertex -0.982287 -0.187381 0.5
      vertex -0.982287 0.187381 0.5
    endloop
  endfacet
  facet normal 0 0 1
    outer loop
      vertex -0.992115 0.125333 0.5
      vertex -0.992115 -0.125333 0.5
      vertex -0.982287 -0.187381 0.5
    endloop
  endfacet
  facet normal -0 0 1
    outer loop
      vertex -0.998027 0.0627905 0.5
      vertex -0.992115 -0.125333 0.5
      vertex -0.992115 0.125333 0.5
    endloop
  endfacet
  facet normal 0 0 1
    outer loop
      vertex -0.998027 0.0627905 0.5
      vertex -0.998027 -0.0627905 0.5
      vertex -0.992115 -0.125333 0.5
    endloop
  endfacet
  facet normal 0 -0 1
    outer loop
      vertex -0.998027 -0.0627905 0.5
      vertex -0.998027 0.0627905 0.5
      vertex -1 -0 0.5
    endloop
  endfacet
endsolid OpenSCAD_Model
